<svg width="541" height="182" viewBox="0 0 541 182" fill="none" xmlns="http://www.w3.org/2000/svg">
<path d="M45.4697 143.096C47.3439 141.323 47.4259 138.367 45.6528 136.492L38.0137 128.418C36.2406 126.543 33.2839 126.461 31.4096 128.234L3.01024 155.101C0.0114636 157.938 -0.119701 162.669 2.71726 165.668L6.50374 169.67C9.34071 172.669 14.0715 172.8 17.0703 169.963L45.4697 143.096Z" fill="white"/>
<path d="M58.7897 125.881L49.193 115.737L26.0413 137.64C23.2401 140.29 23.1176 144.709 25.7677 147.51C28.4177 150.311 32.8368 150.434 35.638 147.784L58.7897 125.881Z" fill="white"/>
<path fill-rule="evenodd" clip-rule="evenodd" d="M31.0228 73.5011C33.4543 33.7504 67.6498 3.49725 107.4 5.92881C147.151 8.36037 177.404 42.5558 174.973 82.3065C172.541 122.057 138.346 152.31 98.595 149.879C58.8443 147.447 28.5912 113.252 31.0228 73.5011ZM40.9819 74.1103C43.077 39.8599 72.5409 13.7929 106.791 15.888C141.042 17.9831 167.109 47.4469 165.014 81.6973C162.918 115.948 133.455 142.015 99.2042 139.92C64.9538 137.825 38.8868 108.361 40.9819 74.1103Z" fill="white"/>
<path d="M122.743 100.503C122.519 100.273 121.651 100.846 120.813 101.778L120.645 101.957C120.625 101.978 120.603 101.998 120.583 102.019L120.583 102.02C119.749 102.849 118.817 103.282 118.281 103.065C117.726 102.842 117.017 103.056 116.705 103.542L116.611 103.674C114.447 106.43 100.971 107.609 94.5659 105.547C91.174 104.455 90.0495 104.578 90.0246 106.044C90.0164 106.505 88.9065 108.532 87.5572 110.551C86.2081 112.568 85.1092 113.895 85.1154 113.501C85.1356 112.314 79.5646 104.633 79.2767 105.45C79.1304 105.866 79.928 107.521 81.0504 109.126C83.2434 112.264 83.5699 114.912 82.2168 118.591C81.1223 121.567 81.7749 121.896 84.4524 119.719C86.582 117.989 87.0004 117.908 91.452 118.357C94.4617 118.661 97.4312 119.478 99.6031 120.599C103.881 122.808 104.513 122.474 100.585 120.082C97.5219 118.216 88.9346 115.724 87.4421 116.268C86.4479 116.63 89.1412 111.847 91.5462 108.98L93.183 107.027L98.5415 107.918C101.489 108.408 104.027 108.942 104.184 109.104C104.526 109.456 106.167 117.625 106.177 119.022C106.181 119.679 105.572 119.411 104.336 118.215C100.798 114.791 94.2948 112.664 90.2466 113.607C87.2056 114.316 88.3814 115.139 92.7277 115.343C97.4754 115.567 101.684 117.261 104.017 119.888C104.933 120.919 105.973 123.531 106.538 126.22C107.05 128.657 107.641 130.502 107.878 130.424L107.901 130.41C108.121 130.196 108.399 127.898 108.519 125.303C108.766 119.959 110.291 117.165 113.955 115.349C116.485 114.095 121.787 113.968 123.692 115.115C124.885 115.834 124.735 115.926 122.402 115.905C119.441 115.878 113.318 118.753 112.247 120.674L112.775 120.967C113.191 120.758 113.805 120.376 114.629 119.816C116.976 118.221 118.732 117.644 122.131 117.35L126.463 116.932L126.136 114.702C125.334 113.15 125.566 109.482 126.635 106.833C127.508 104.668 125.774 105.807 124.596 108.172C123.533 110.307 123.247 110.493 122.291 109.671C121.689 109.154 120.821 107.803 120.362 106.668C119.596 104.777 119.678 104.45 121.337 102.762C122.271 101.814 122.885 100.86 122.775 100.555L122.743 100.503ZM112.247 120.674C111.956 121.196 112.116 121.299 112.775 120.967L112.247 120.674ZM116.269 107.213C116.464 107.283 116.678 107.415 116.949 107.666C117.378 108.063 117.864 108.672 118.565 109.623L119.655 111.098L118.384 111.262C116.74 111.473 115.182 111.876 113.765 112.456C113.404 112.584 113.059 112.727 112.735 112.887C111.139 113.678 109.784 114.677 108.705 115.977C108.572 114.844 108.466 113.33 108.456 112.099C108.449 111.271 108.448 110.757 108.487 110.376C108.523 110.024 108.582 109.94 108.596 109.919C108.62 109.885 108.71 109.776 109.092 109.571C109.482 109.361 110.026 109.127 110.862 108.773C110.926 108.745 110.99 108.718 111.053 108.692C112.165 108.5 113.216 108.266 114.163 107.988C114.898 107.772 115.614 107.517 116.269 107.213Z" fill="white"/>
<path d="M107.911 44.3207C107.911 43.1844 106.99 42.2632 105.854 42.2632H99.5732C98.7694 42.2632 98.1178 42.9148 98.1178 43.7185C98.1178 44.5223 98.7694 45.1739 99.5732 45.1739H107.058C107.529 45.1739 107.911 44.7919 107.911 44.3207Z" fill="#21D496"/>
<path d="M127.806 72.9544V76.606C127.806 83.3684 125.642 88.8459 121.314 93.0385C116.986 97.2312 111.396 99.3275 104.543 99.3275C97.24 99.3275 91.1765 96.9607 86.3527 92.2271C81.5739 87.4483 79.1846 81.6327 79.1846 74.7802C79.1846 67.8826 81.5514 62.0445 86.285 57.2657C91.0638 52.487 96.9695 50.0977 104.002 50.0977C108.42 50.0977 112.455 51.112 116.107 53.1407C119.759 55.1243 122.599 57.7842 124.628 61.1203L116.648 65.7187C115.521 63.7801 113.808 62.2023 111.509 60.985C109.254 59.7678 106.73 59.1592 103.935 59.1592C99.4265 59.1592 95.7072 60.6469 92.7769 63.6223C89.8916 66.5527 88.449 70.272 88.449 74.7802C88.449 79.2434 89.9142 82.9401 92.8445 85.8705C95.8199 88.7557 99.7421 90.1984 104.611 90.1984C108.218 90.1984 111.193 89.4094 113.537 87.8315C115.927 86.2086 117.55 83.9995 118.406 81.2044H104.07V72.9544H127.806Z" fill="#FF595E"/>
<path d="M130.67 58.4965C129.314 63.013 130.322 65.2233 130.67 66.5988L136.847 62.6594C139.766 60.798 141.273 57.2975 140.472 53.9296C139.883 51.4571 139.118 48.5911 138.191 46.0105C136.231 40.5578 130.102 33.9038 126.964 31.2C127.035 31.5323 127.486 32.8409 128.719 35.4164C130.261 38.6358 131.758 48.5662 132.03 51.2415C132.302 53.9167 131.804 54.7192 130.67 58.4965Z" fill="white"/>
<path d="M131.471 74.7117L131.55 76.1458C137.826 76.8598 147.965 74.113 152.701 72.3967C153.78 60.5301 150.288 50.5656 147.153 47.3653L145.035 65.5905L133.52 71.2196C132.197 71.8662 131.39 73.2417 131.471 74.7117Z" fill="white"/>
<path d="M144.612 109.275V90.4515C140.995 88.766 133.37 85.0231 131.806 83.5353C130.794 82.5721 130.679 81.4425 130.867 80.5888C131.03 79.8477 131.774 79.4694 132.533 79.4562C140.316 79.3201 149.515 83.354 153.264 85.395C155.248 94.7411 148.322 105.209 144.612 109.275Z" fill="white"/>
<path d="M126.102 93.1101C126.324 92.017 128.387 88.9646 129.39 87.575C132.163 88.5838 136.95 93.0548 139.368 95.6473C139.689 95.9915 139.857 96.4495 139.826 96.9191C139.038 108.646 128.435 120.477 123.203 124.952C127.187 118.241 129.253 107.788 130.001 101.805C130.175 100.414 129.828 99.019 129.08 97.8339L126.102 93.1101Z" fill="white"/>
<path d="M76.3215 58.4965C77.6774 63.013 76.6691 65.2233 76.3215 66.5988L70.1439 62.6594C67.2249 60.798 65.7177 57.2975 66.5193 53.9296C67.1078 51.4571 67.8731 48.5911 68.8004 46.0105C70.7598 40.5578 76.8891 33.9038 80.0271 31.2C79.9558 31.5323 79.5049 32.8409 78.2715 35.4164C76.7298 38.6358 75.2334 48.5662 74.9613 51.2415C74.6892 53.9167 75.1875 54.7192 76.3215 58.4965Z" fill="white"/>
<path d="M75.52 74.7117L75.4411 76.1458C69.1653 76.8598 59.0262 74.113 54.2899 72.3967C53.2111 60.5301 56.7034 50.5656 59.8379 47.3653L61.9564 65.5905L73.4712 71.2196C74.7938 71.8662 75.6008 73.2417 75.52 74.7117Z" fill="white"/>
<path d="M62.3793 109.275V90.4515C65.9961 88.766 73.6208 85.0231 75.1848 83.5353C76.1974 82.5721 76.3116 81.4425 76.124 80.5888C75.9611 79.8477 75.217 79.4694 74.4584 79.4562C66.6752 79.3201 57.4764 83.354 53.727 85.395C51.7433 94.7411 58.6686 105.209 62.3793 109.275Z" fill="white"/>
<path d="M80.8892 93.1101C80.6669 92.017 78.6042 88.9646 77.6007 87.575C74.8279 88.5838 70.041 93.0548 67.6227 95.6473C67.3017 95.9915 67.1337 96.4495 67.1652 96.9191C67.9535 108.646 78.5564 120.477 83.7881 124.952C79.8036 118.241 77.7382 107.788 76.9901 101.805C76.8163 100.414 77.1635 99.019 77.9107 97.8339L80.8892 93.1101Z" fill="white"/>
<path d="M269.431 89.2868V94.4201C269.431 104.687 266.044 113.099 259.271 119.658C252.498 126.146 243.658 129.39 232.75 129.39C221.2 129.39 211.646 125.647 204.089 118.161C196.603 110.675 192.86 101.478 192.86 90.5701C192.86 79.7333 196.603 70.5719 204.089 63.0859C211.646 55.5286 220.986 51.75 232.108 51.75C239.095 51.75 245.476 53.3541 251.251 56.5624C257.026 59.7707 261.517 64.084 264.726 69.5025L254.138 75.5982C252.142 72.0334 249.183 69.1816 245.262 67.0428C241.341 64.8326 236.956 63.7276 232.108 63.7276C224.266 63.7276 217.813 66.2942 212.751 71.4274C207.69 76.5607 205.159 82.9772 205.159 90.6771C205.159 98.3769 207.69 104.758 212.751 109.82C217.885 114.882 224.586 117.413 232.857 117.413C239.487 117.413 244.87 115.88 249.005 112.814C253.211 109.677 255.885 105.506 257.026 100.302H232.001V89.2868H269.431ZM305.164 129.39C297.108 129.39 290.37 126.681 284.952 121.263C279.605 115.844 276.931 109.178 276.931 101.264C276.931 93.2793 279.605 86.6133 284.952 81.2661C290.37 75.8477 297.108 73.1385 305.164 73.1385C310.369 73.1385 315.11 74.3862 319.387 76.8815C323.665 79.3768 326.873 82.7277 329.012 86.9341L319.067 92.709C317.855 90.1424 316.001 88.1461 313.506 86.7202C311.081 85.223 308.265 84.4744 305.057 84.4744C300.352 84.4744 296.395 86.0785 293.186 89.2868C290.049 92.4951 288.481 96.4876 288.481 101.264C288.481 106.041 290.049 110.034 293.186 113.242C296.395 116.45 300.352 118.054 305.057 118.054C308.194 118.054 311.01 117.306 313.506 115.809C316.072 114.311 317.997 112.315 319.28 109.82L329.226 115.488C326.945 119.765 323.665 123.152 319.387 125.647C315.11 128.143 310.369 129.39 305.164 129.39ZM349.437 83.5119C352.36 76.8815 357.85 73.5663 365.906 73.5663V86.0785C361.486 85.7934 357.636 86.8628 354.357 89.2868C351.077 91.6396 349.437 95.5608 349.437 101.05V128H337.888V74.5288H349.437V83.5119ZM414.283 74.5288H425.833V128H414.283V120.3C409.934 126.36 403.696 129.39 395.568 129.39C388.225 129.39 381.951 126.681 376.746 121.263C371.542 115.773 368.939 109.107 368.939 101.264C368.939 93.3506 371.542 86.6845 376.746 81.2661C381.951 75.8477 388.225 73.1385 395.568 73.1385C403.696 73.1385 409.934 76.1329 414.283 82.1217V74.5288ZM385.302 113.563C388.51 116.771 392.538 118.375 397.386 118.375C402.234 118.375 406.262 116.771 409.471 113.563C412.679 110.283 414.283 106.184 414.283 101.264C414.283 96.345 412.679 92.2812 409.471 89.0729C406.262 85.7934 402.234 84.1536 397.386 84.1536C392.538 84.1536 388.51 85.7934 385.302 89.0729C382.093 92.2812 380.489 96.345 380.489 101.264C380.489 106.184 382.093 110.283 385.302 113.563ZM500.894 74.5288H513.085L496.295 128H484.959L473.837 91.9604L462.608 128H451.272L434.483 74.5288H446.674L457.047 111.424L468.276 74.5288H479.291L490.413 111.424L500.894 74.5288ZM521.591 128V49.932H533.14V128H521.591Z" fill="white"/>
</svg>
