<svg width="535" height="182" viewBox="0 0 535 182" fill="none" xmlns="http://www.w3.org/2000/svg">
<path d="M107.401 5.9288C67.6508 3.49724 33.4553 33.7504 31.0237 73.5011C28.5922 113.252 58.8453 147.447 98.596 149.879C138.347 152.31 172.542 122.057 174.974 82.3065C177.405 42.5558 147.152 8.36037 107.401 5.9288Z" fill="#054A91"/>
<path d="M106.792 15.888C72.5419 13.7929 43.078 39.8599 40.9829 74.1103C38.8878 108.361 64.9548 137.825 99.2052 139.92C133.456 142.015 162.919 115.948 165.015 81.6973C167.11 47.4469 141.043 17.9831 106.792 15.888Z" fill="white"/>
<path d="M45.4707 143.096C47.3449 141.323 47.4269 138.367 45.6538 136.492L38.0147 128.418C36.2416 126.543 33.2849 126.461 31.4106 128.234L3.01121 155.101C0.0124347 157.938 -0.118731 162.669 2.71823 165.668L6.50471 169.67C9.34168 172.669 14.0725 172.8 17.0713 169.963L45.4707 143.096Z" fill="#054A91"/>
<path d="M58.7907 125.881L49.194 115.737L26.0423 137.64C23.2411 140.29 23.1186 144.709 25.7686 147.51C28.4187 150.311 32.8378 150.434 35.639 147.784L58.7907 125.881Z" fill="#054A91"/>
<path d="M122.744 100.503C122.52 100.273 121.652 100.846 120.814 101.778L120.646 101.957C120.626 101.978 120.604 101.998 120.584 102.019L120.584 102.02C119.75 102.849 118.818 103.282 118.282 103.065C117.727 102.842 117.018 103.056 116.706 103.542L116.612 103.674C114.448 106.43 100.971 107.609 94.5669 105.547C91.175 104.455 90.0505 104.578 90.0256 106.044C90.0174 106.505 88.9074 108.532 87.5582 110.551C86.2091 112.568 85.1102 113.895 85.1164 113.501C85.1365 112.314 79.5656 104.633 79.2777 105.45C79.1314 105.866 79.929 107.521 81.0514 109.126C83.2444 112.264 83.5709 114.912 82.2178 118.591C81.1233 121.567 81.7758 121.896 84.4534 119.719C86.583 117.989 87.0014 117.908 91.453 118.357C94.4627 118.661 97.4322 119.478 99.6041 120.599C103.882 122.808 104.514 122.474 100.586 120.082C97.5228 118.216 88.9355 115.724 87.4431 116.268C86.4488 116.63 89.1422 111.847 91.5471 108.98L93.184 107.027L98.5425 107.918C101.49 108.408 104.028 108.942 104.185 109.104C104.527 109.456 106.168 117.625 106.178 119.022C106.182 119.679 105.573 119.411 104.337 118.215C100.799 114.791 94.2958 112.664 90.2476 113.607C87.2066 114.316 88.3823 115.139 92.7287 115.343C97.4764 115.567 101.685 117.261 104.018 119.888C104.934 120.919 105.974 123.531 106.539 126.22C107.051 128.657 107.642 130.502 107.879 130.424L107.902 130.41C108.122 130.196 108.4 127.898 108.52 125.303C108.767 119.959 110.292 117.165 113.956 115.349C116.486 114.095 121.788 113.968 123.693 115.115C124.886 115.834 124.736 115.926 122.403 115.905C119.442 115.878 113.319 118.753 112.248 120.674L112.776 120.967C113.192 120.758 113.806 120.376 114.63 119.816C116.977 118.221 118.733 117.644 122.132 117.35L126.464 116.932L126.137 114.702C125.335 113.15 125.567 109.482 126.636 106.833C127.509 104.668 125.775 105.807 124.597 108.172C123.534 110.307 123.248 110.493 122.292 109.671C121.69 109.154 120.822 107.803 120.363 106.668C119.597 104.777 119.679 104.45 121.338 102.762C122.272 101.814 122.886 100.86 122.776 100.555L122.744 100.503ZM112.248 120.674C111.957 121.196 112.117 121.299 112.776 120.967L112.248 120.674ZM116.27 107.213C116.465 107.283 116.679 107.415 116.95 107.666C117.379 108.063 117.865 108.672 118.566 109.623L119.656 111.098L118.385 111.262C116.741 111.473 115.183 111.876 113.766 112.456C113.405 112.584 113.06 112.727 112.736 112.887C111.14 113.678 109.785 114.677 108.706 115.977C108.573 114.844 108.467 113.33 108.457 112.099C108.45 111.271 108.449 110.757 108.488 110.376C108.524 110.024 108.583 109.94 108.597 109.919C108.621 109.885 108.711 109.776 109.093 109.571C109.483 109.361 110.027 109.127 110.863 108.773C110.927 108.745 110.991 108.718 111.054 108.692C112.166 108.5 113.217 108.266 114.164 107.988C114.899 107.772 115.615 107.517 116.27 107.213Z" fill="#054A91"/>
<path d="M107.912 44.3207C107.912 43.1844 106.991 42.2632 105.855 42.2632H99.5741C98.7704 42.2632 98.1188 42.9148 98.1188 43.7185C98.1188 44.5223 98.7704 45.1739 99.5741 45.1739H107.059C107.53 45.1739 107.912 44.7919 107.912 44.3207Z" fill="#21D496"/>
<path d="M127.807 72.9544V76.606C127.807 83.3684 125.643 88.8459 121.315 93.0385C116.987 97.2312 111.397 99.3275 104.544 99.3275C97.241 99.3275 91.1774 96.9607 86.3536 92.2271C81.5749 87.4483 79.1855 81.6327 79.1855 74.7802C79.1855 67.8826 81.5524 62.0445 86.286 57.2657C91.0647 52.487 96.9705 50.0977 104.003 50.0977C108.421 50.0977 112.456 51.112 116.108 53.1407C119.76 55.1243 122.6 57.7842 124.628 61.1203L116.649 65.7187C115.522 63.7801 113.809 62.2023 111.51 60.985C109.255 59.7678 106.731 59.1592 103.936 59.1592C99.4275 59.1592 95.7082 60.6469 92.7779 63.6223C89.8926 66.5527 88.45 70.272 88.45 74.7802C88.45 79.2434 89.9151 82.9401 92.8455 85.8705C95.8209 88.7557 99.7431 90.1984 104.612 90.1984C108.219 90.1984 111.194 89.4094 113.538 87.8315C115.928 86.2086 117.551 83.9995 118.407 81.2044H104.071V72.9544H127.807Z" fill="#FF595E"/>
<path d="M130.671 58.4965C129.315 63.013 130.323 65.2233 130.671 66.5988L136.848 62.6594C139.767 60.798 141.274 57.2975 140.473 53.9296C139.884 51.4571 139.119 48.5911 138.192 46.0105C136.232 40.5578 130.103 33.9038 126.965 31.2C127.036 31.5323 127.487 32.8409 128.72 35.4164C130.262 38.6358 131.759 48.5662 132.031 51.2415C132.303 53.9167 131.805 54.7192 130.671 58.4965Z" fill="#054A91"/>
<path d="M131.472 74.7117L131.551 76.1458C137.827 76.8598 147.966 74.113 152.702 72.3967C153.781 60.5301 150.289 50.5656 147.154 47.3653L145.036 65.5905L133.521 71.2196C132.198 71.8662 131.391 73.2417 131.472 74.7117Z" fill="#054A91"/>
<path d="M144.613 109.275V90.4515C140.996 88.766 133.371 85.0231 131.807 83.5353C130.795 82.5721 130.68 81.4425 130.868 80.5888C131.031 79.8477 131.775 79.4694 132.534 79.4562C140.317 79.3201 149.516 83.354 153.265 85.395C155.249 94.7411 148.323 105.209 144.613 109.275Z" fill="#054A91"/>
<path d="M126.103 93.1101C126.325 92.017 128.388 88.9646 129.391 87.575C132.164 88.5838 136.951 93.0548 139.369 95.6473C139.69 95.9915 139.858 96.4495 139.827 96.9191C139.038 108.646 128.436 120.477 123.204 124.952C127.188 118.241 129.254 107.788 130.002 101.805C130.176 100.414 129.829 99.019 129.081 97.8339L126.103 93.1101Z" fill="#054A91"/>
<path d="M76.3225 58.4965C77.6784 63.013 76.6701 65.2233 76.3225 66.5988L70.1449 62.6594C67.2259 60.798 65.7187 57.2975 66.5203 53.9296C67.1088 51.4571 67.8741 48.5911 68.8014 46.0105C70.7608 40.5578 76.89 33.9038 80.028 31.2C79.9567 31.5323 79.5058 32.8409 78.2725 35.4164C76.7308 38.6358 75.2343 48.5662 74.9623 51.2415C74.6902 53.9167 75.1884 54.7192 76.3225 58.4965Z" fill="#054A91"/>
<path d="M75.5209 74.7117L75.442 76.1458C69.1663 76.8598 59.0272 74.113 54.2909 72.3967C53.2121 60.5301 56.7044 50.5656 59.8389 47.3653L61.9573 65.5905L73.4722 71.2196C74.7948 71.8662 75.6018 73.2417 75.5209 74.7117Z" fill="#054A91"/>
<path d="M62.3802 109.275V90.4515C65.9971 88.766 73.6217 85.0231 75.1858 83.5353C76.1983 82.5721 76.3126 81.4425 76.125 80.5888C75.9621 79.8477 75.218 79.4694 74.4593 79.4562C66.6762 79.3201 57.4773 83.354 53.728 85.395C51.7443 94.7411 58.6696 105.209 62.3802 109.275Z" fill="#054A91"/>
<path d="M80.8902 93.1101C80.6679 92.017 78.6052 88.9646 77.6016 87.575C74.8289 88.5838 70.042 93.0548 67.6237 95.6473C67.3027 95.9915 67.1346 96.4495 67.1662 96.9191C67.9545 108.646 78.5574 120.477 83.7891 124.952C79.8045 118.241 77.7392 107.788 76.9911 101.805C76.8172 100.414 77.1644 99.019 77.9117 97.8339L80.8902 93.1101Z" fill="#054A91"/>
<path d="M263.43 89.2868V94.4201C263.43 104.687 260.044 113.099 253.27 119.658C246.497 126.146 237.657 129.39 226.749 129.39C215.199 129.39 205.645 125.647 198.088 118.161C190.602 110.675 186.859 101.478 186.859 90.5701C186.859 79.7333 190.602 70.5719 198.088 63.0859C205.645 55.5286 214.985 51.75 226.107 51.75C233.094 51.75 239.475 53.3541 245.25 56.5624C251.025 59.7707 255.516 64.084 258.725 69.5025L248.137 75.5982C246.141 72.0334 243.182 69.1816 239.261 67.0428C235.34 64.8326 230.955 63.7276 226.107 63.7276C218.265 63.7276 211.812 66.2942 206.751 71.4274C201.689 76.5607 199.158 82.9772 199.158 90.6771C199.158 98.3769 201.689 104.758 206.751 109.82C211.884 114.882 218.585 117.413 226.856 117.413C233.486 117.413 238.869 115.88 243.004 112.814C247.21 109.677 249.884 105.506 251.025 100.302H226V89.2868H263.43ZM299.163 129.39C291.107 129.39 284.369 126.681 278.951 121.263C273.604 115.844 270.93 109.178 270.93 101.264C270.93 93.2793 273.604 86.6133 278.951 81.2661C284.369 75.8477 291.107 73.1385 299.163 73.1385C304.368 73.1385 309.109 74.3862 313.386 76.8815C317.664 79.3768 320.872 82.7277 323.011 86.9341L313.066 92.709C311.854 90.1424 310 88.1461 307.505 86.7202C305.081 85.223 302.264 84.4744 299.056 84.4744C294.351 84.4744 290.394 86.0785 287.185 89.2868C284.048 92.4951 282.48 96.4876 282.48 101.264C282.48 106.041 284.048 110.034 287.185 113.242C290.394 116.45 294.351 118.054 299.056 118.054C302.193 118.054 305.009 117.306 307.505 115.809C310.071 114.311 311.996 112.315 313.279 109.82L323.225 115.488C320.944 119.765 317.664 123.152 313.386 125.647C309.109 128.143 304.368 129.39 299.163 129.39ZM343.436 83.5119C346.359 76.8815 351.849 73.5663 359.906 73.5663V86.0785C355.485 85.7934 351.635 86.8628 348.356 89.2868C345.076 91.6396 343.436 95.5608 343.436 101.05V128H331.887V74.5288H343.436V83.5119ZM408.282 74.5288H419.832V128H408.282V120.3C403.933 126.36 397.695 129.39 389.567 129.39C382.224 129.39 375.95 126.681 370.745 121.263C365.541 115.773 362.938 109.107 362.938 101.264C362.938 93.3506 365.541 86.6845 370.745 81.2661C375.95 75.8477 382.224 73.1385 389.567 73.1385C397.695 73.1385 403.933 76.1329 408.282 82.1217V74.5288ZM379.301 113.563C382.509 116.771 386.537 118.375 391.385 118.375C396.233 118.375 400.261 116.771 403.47 113.563C406.678 110.283 408.282 106.184 408.282 101.264C408.282 96.345 406.678 92.2812 403.47 89.0729C400.261 85.7934 396.233 84.1536 391.385 84.1536C386.537 84.1536 382.509 85.7934 379.301 89.0729C376.092 92.2812 374.488 96.345 374.488 101.264C374.488 106.184 376.092 110.283 379.301 113.563ZM494.893 74.5288H507.084L490.294 128H478.958L467.836 91.9604L456.607 128H445.272L428.482 74.5288H440.673L451.046 111.424L462.275 74.5288H473.29L484.412 111.424L494.893 74.5288ZM515.59 128V49.932H527.139V128H515.59Z" fill="#054A91"/>
</svg>
