<svg width="162" height="50" viewBox="0 0 162 50" fill="none" xmlns="http://www.w3.org/2000/svg">
<path d="M36.9731 15.268V23.5302C36.9731 23.7291 36.9214 23.9244 36.8232 24.0967C36.725 24.2689 36.5837 24.4119 36.4137 24.5114L32.3109 26.9091L28.3014 29.253L24.9577 31.2079C24.7876 31.3073 24.5947 31.3597 24.3983 31.3597C24.2018 31.3597 24.0089 31.3073 23.8388 31.2079L20.4979 29.254L19.7295 28.8054L16.4884 26.9091L12.3856 24.5104C12.2156 24.411 12.0743 24.268 11.9761 24.0957C11.8779 23.9235 11.8262 23.7281 11.8262 23.5292V10.1344C11.8262 9.93551 11.8779 9.74014 11.9761 9.56791C12.0743 9.39568 12.2156 9.25265 12.3856 9.1532L16.4884 6.75452L20.4979 4.40967L23.8388 2.45578C24.0089 2.35631 24.2018 2.30396 24.3983 2.30396C24.5947 2.30396 24.7876 2.35631 24.9577 2.45578L26.9886 3.64285L27.6142 4.00926L29.9017 5.34309V10.8041L25.3755 8.15313L24.8645 7.8547C24.7229 7.77117 24.5621 7.72715 24.3983 7.72715C24.2344 7.72715 24.0736 7.77117 23.932 7.8547L20.4979 9.86337V9.85298L16.9546 11.924C16.8128 12.0068 16.6951 12.1261 16.6133 12.2696C16.5315 12.4132 16.4884 12.576 16.4884 12.7418V20.9134C16.4884 21.0791 16.5315 21.242 16.6133 21.3855C16.6951 21.5291 16.8128 21.6483 16.9546 21.7312L18.5677 22.6755L20.4979 23.8041L23.932 25.8118C24.0584 25.8858 24.2002 25.9287 24.346 25.9371C24.4917 25.9454 24.6374 25.919 24.7712 25.8599C24.8032 25.8458 24.8344 25.8297 24.8645 25.8118L28.3014 23.8022L30.2297 22.6755L31.8466 21.7236C31.9881 21.6409 32.1056 21.522 32.1874 21.3788C32.2692 21.2356 32.3125 21.0731 32.3128 20.9077V17.0622C34.0218 17.0145 35.6644 16.382 36.9731 15.268Z" fill="#054A91"/>
<mask id="mask0_2060_11694" style="mask-type:alpha" maskUnits="userSpaceOnUse" x="11" y="2" width="26" height="30">
<path d="M36.9731 15.268V23.5302C36.9731 23.7291 36.9214 23.9244 36.8232 24.0967C36.725 24.2689 36.5837 24.4119 36.4137 24.5114L32.3109 26.9091L28.3014 29.253L24.9577 31.2079C24.7876 31.3073 24.5947 31.3597 24.3983 31.3597C24.2018 31.3597 24.0089 31.3073 23.8388 31.2079L20.4979 29.254L19.7295 28.8054L16.4884 26.9091L12.3856 24.5104C12.2156 24.411 12.0743 24.268 11.9761 24.0957C11.8779 23.9235 11.8262 23.7281 11.8262 23.5292V10.1344C11.8262 9.93551 11.8779 9.74014 11.9761 9.56791C12.0743 9.39568 12.2156 9.25265 12.3856 9.1532L16.4884 6.75452L20.4979 4.40967L23.8388 2.45578C24.0089 2.35631 24.2018 2.30396 24.3983 2.30396C24.5947 2.30396 24.7876 2.35631 24.9577 2.45578L26.9886 3.64285L27.6142 4.00926L29.9017 5.34309V10.8041L25.3755 8.15313L24.8645 7.8547C24.7229 7.77117 24.5621 7.72715 24.3983 7.72715C24.2344 7.72715 24.0736 7.77117 23.932 7.8547L20.4979 9.86337V9.85298L16.9546 11.924C16.8128 12.0068 16.6951 12.1261 16.6133 12.2696C16.5315 12.4132 16.4884 12.576 16.4884 12.7418V20.9134C16.4884 21.0791 16.5315 21.242 16.6133 21.3855C16.6951 21.5291 16.8128 21.6483 16.9546 21.7312L18.5677 22.6755L20.4979 23.8041L23.932 25.8118C24.0584 25.8858 24.2002 25.9287 24.346 25.9371C24.4917 25.9454 24.6374 25.919 24.7712 25.8599C24.8032 25.8458 24.8344 25.8297 24.8645 25.8118L28.3014 23.8022L30.2297 22.6755L31.8466 21.7236C31.9881 21.6409 32.1056 21.522 32.1874 21.3788C32.2692 21.2356 32.3125 21.0731 32.3128 20.9077V17.0622C34.0218 17.0145 35.6644 16.382 36.9731 15.268Z" fill="#4188FF"/>
</mask>
<g mask="url(#mask0_2060_11694)">
<path d="M36.0759 24.7268L31.4121 21.8923V18.0788L32.7389 15.8764L37.7243 14.5305L38.046 24.2374L36.0759 24.7268Z" fill="#FF595E"/>
</g>
<path d="M38.1379 8.44155C38.1612 8.57377 38.1798 8.70504 38.1948 8.83536C38.2059 8.92979 38.2143 9.03273 38.2209 9.13094C38.2353 9.36744 38.2353 9.60461 38.2209 9.84111C38.1506 11.1139 37.6796 12.3305 36.8771 13.3126C36.0745 14.2947 34.9825 14.9907 33.761 15.2986C33.6367 15.3301 33.5124 15.3574 33.388 15.3807C33.2491 15.4062 33.1083 15.4261 32.9722 15.4412C32.4673 14.381 32.3894 13.1635 32.7549 12.0462C32.8356 11.8026 32.9364 11.5663 33.0561 11.3398C33.5827 10.3416 34.4608 9.5804 35.5159 9.20743C35.3853 9.21782 35.2538 9.23671 35.1214 9.26032C33.9574 9.47426 32.9249 10.1477 32.251 11.1325C31.5771 12.1173 31.3169 13.3329 31.5278 14.5119C31.5437 14.6064 31.5623 14.6932 31.5847 14.782C31.1993 14.2014 30.9524 13.5381 30.8634 12.8443C30.7743 12.1505 30.8456 11.4453 31.0717 10.7842C31.2977 10.1231 31.6722 9.52423 32.1658 9.03477C32.6594 8.54531 33.2584 8.17866 33.9158 7.96371C34.5461 7.84238 35.1439 7.58718 35.6698 7.21492C36.1956 6.84266 36.6377 6.36177 36.9667 5.80396C37.566 6.57185 37.9683 7.47797 38.1379 8.44155Z" fill="#21D496"/>
<path d="M36.973 26.3352V40.3486C36.973 40.5475 36.9213 40.7429 36.8231 40.9151C36.7249 41.0874 36.5836 41.2304 36.4136 41.3298L32.3109 43.7276L28.3014 46.0724L24.9576 48.0273C24.7875 48.1267 24.5946 48.1791 24.3982 48.1791C24.2018 48.1791 24.0088 48.1267 23.8387 48.0273L18.8965 45.1379L18.8965 39.6861L23.9319 42.6293C24.0737 42.7122 24.2345 42.7558 24.3982 42.7558C24.5618 42.7558 24.7226 42.7122 24.8644 42.6293L28.3014 40.6197V40.6395L32.3109 38.2956L32.3109 29.0606L36.973 26.3352Z" fill="#054A91"/>
<path d="M60.0569 23.427V24.4521C60.0569 26.5024 59.3902 28.1826 58.0568 29.4925C56.7234 30.7882 54.9829 31.436 52.8355 31.436C50.5617 31.436 48.6809 30.6885 47.1931 29.1935C45.7193 27.6985 44.9824 25.8617 44.9824 23.6833C44.9824 21.519 45.7193 19.6894 47.1931 18.1944C48.6809 16.6851 50.5195 15.9305 52.7091 15.9305C54.0846 15.9305 55.3409 16.2508 56.4778 16.8916C57.6147 17.5323 58.4989 18.3937 59.1305 19.4758L57.0462 20.6932C56.6532 19.9813 56.0707 19.4118 55.2987 18.9846C54.5268 18.5432 53.6636 18.3225 52.7091 18.3225C51.1652 18.3225 49.895 18.8351 48.8984 19.8603C47.9019 20.8854 47.4036 22.1669 47.4036 23.7046C47.4036 25.2424 47.9019 26.5167 48.8984 27.5276C49.909 28.5385 51.2284 29.044 52.8565 29.044C54.1618 29.044 55.2215 28.7379 56.0356 28.1256C56.8637 27.4991 57.3901 26.6662 57.6147 25.6268H52.6881V23.427H60.0569Z" fill="#054A91"/>
<path d="M65.2389 22.2737C65.8144 20.9495 66.8951 20.2874 68.4812 20.2874V22.7862C67.6109 22.7293 66.853 22.9429 66.2074 23.427C65.5617 23.8968 65.2389 24.6799 65.2389 25.7763V31.1584H62.9651V20.4796H65.2389V22.2737Z" fill="#054A91"/>
<path d="M78.8472 20.4796H81.121V31.1584H78.8472V29.6206C77.991 30.8309 76.7628 31.436 75.1628 31.436C73.7171 31.436 72.4819 30.895 71.4573 29.8129C70.4327 28.7165 69.9204 27.3852 69.9204 25.819C69.9204 24.2386 70.4327 22.9073 71.4573 21.8252C72.4819 20.743 73.7171 20.202 75.1628 20.202C76.7628 20.202 77.991 20.8 78.8472 21.996V20.4796ZM73.1416 28.2751C73.7732 28.9158 74.5662 29.2362 75.5207 29.2362C76.4751 29.2362 77.2681 28.9158 77.8997 28.2751C78.5314 27.6202 78.8472 26.8015 78.8472 25.819C78.8472 24.8366 78.5314 24.025 77.8997 23.3843C77.2681 22.7293 76.4751 22.4018 75.5207 22.4018C74.5662 22.4018 73.7732 22.7293 73.1416 23.3843C72.51 24.025 72.1942 24.8366 72.1942 25.819C72.1942 26.8015 72.51 27.6202 73.1416 28.2751Z" fill="#054A91"/>
<path d="M96.1087 20.202C97.3018 20.202 98.2632 20.5935 98.9931 21.3766C99.723 22.1598 100.088 23.2134 100.088 24.5376V31.1584H97.8141V24.6871C97.8141 23.9467 97.6316 23.3771 97.2667 22.9785C96.9018 22.5655 96.4035 22.3591 95.7719 22.3591C95.0701 22.3591 94.5087 22.594 94.0876 23.0639C93.6805 23.5338 93.477 24.2386 93.477 25.1783V31.1584H91.2032V24.6871C91.2032 23.9467 91.0278 23.3771 90.6769 22.9785C90.34 22.5655 89.8558 22.3591 89.2242 22.3591C88.5364 22.3591 87.975 22.6011 87.5399 23.0852C87.1048 23.5551 86.8872 24.2528 86.8872 25.1783V31.1584H84.6134V20.4796H86.8872V21.7611C87.5609 20.7217 88.5645 20.202 89.8979 20.202C91.2453 20.202 92.2419 20.7644 92.8875 21.8892C93.5893 20.7644 94.663 20.202 96.1087 20.202Z" fill="#054A91"/>
<path d="M108.332 31.436C106.788 31.436 105.476 30.895 104.395 29.8129C103.314 28.7307 102.774 27.3995 102.774 25.819C102.774 24.2386 103.314 22.9073 104.395 21.8252C105.476 20.743 106.788 20.202 108.332 20.202C109.89 20.202 111.203 20.743 112.269 21.8252C113.35 22.9073 113.89 24.2386 113.89 25.819C113.89 27.3995 113.35 28.7307 112.269 29.8129C111.203 30.895 109.89 31.436 108.332 31.436ZM105.995 28.2324C106.627 28.8731 107.406 29.1935 108.332 29.1935C109.259 29.1935 110.038 28.8731 110.669 28.2324C111.301 27.5917 111.617 26.7872 111.617 25.819C111.617 24.8508 111.301 24.0463 110.669 23.4056C110.038 22.7649 109.259 22.4445 108.332 22.4445C107.406 22.4445 106.627 22.7649 105.995 23.4056C105.364 24.0463 105.048 24.8508 105.048 25.819C105.048 26.7872 105.364 27.5917 105.995 28.2324Z" fill="#054A91"/>
<path d="M118.625 23.427C118.625 23.7829 118.815 24.0677 119.194 24.2813C119.587 24.4806 120.057 24.6586 120.604 24.8152C121.166 24.9576 121.727 25.1284 122.289 25.3278C122.85 25.5271 123.32 25.8688 123.699 26.3529C124.092 26.8228 124.289 27.4208 124.289 28.147C124.289 29.1721 123.896 29.9766 123.11 30.5604C122.338 31.1441 121.362 31.436 120.183 31.436C119.145 31.436 118.253 31.2153 117.509 30.7739C116.765 30.3326 116.225 29.7203 115.888 28.9372L117.846 27.7839C118.211 28.8091 118.99 29.3216 120.183 29.3216C121.376 29.3216 121.973 28.923 121.973 28.1256C121.973 27.7839 121.776 27.5063 121.383 27.2927C121.004 27.0791 120.534 26.9011 119.973 26.7587C119.425 26.6021 118.871 26.4241 118.309 26.2248C117.748 26.0255 117.271 25.698 116.878 25.2424C116.499 24.7725 116.309 24.1816 116.309 23.4697C116.309 22.4872 116.674 21.697 117.404 21.099C118.148 20.501 119.067 20.202 120.162 20.202C121.032 20.202 121.804 20.4013 122.478 20.8C123.166 21.1844 123.692 21.7255 124.057 22.4232L122.141 23.5124C121.776 22.7008 121.117 22.295 120.162 22.295C119.727 22.295 119.362 22.3947 119.067 22.594C118.773 22.7791 118.625 23.0568 118.625 23.427Z" fill="#054A91"/>
<path d="M131.831 31.436C130.287 31.436 128.975 30.895 127.894 29.8129C126.813 28.7307 126.273 27.3995 126.273 25.819C126.273 24.2386 126.813 22.9073 127.894 21.8252C128.975 20.743 130.287 20.202 131.831 20.202C133.389 20.202 134.701 20.743 135.768 21.8252C136.849 22.9073 137.389 24.2386 137.389 25.819C137.389 27.3995 136.849 28.7307 135.768 29.8129C134.701 30.895 133.389 31.436 131.831 31.436ZM129.494 28.2324C130.126 28.8731 130.905 29.1935 131.831 29.1935C132.757 29.1935 133.536 28.8731 134.168 28.2324C134.8 27.5917 135.115 26.7872 135.115 25.819C135.115 24.8508 134.8 24.0463 134.168 23.4056C133.536 22.7649 132.757 22.4445 131.831 22.4445C130.905 22.4445 130.126 22.7649 129.494 23.4056C128.862 24.0463 128.547 24.8508 128.547 25.819C128.547 26.7872 128.862 27.5917 129.494 28.2324Z" fill="#054A91"/>
<path d="M145.433 18.1517C143.777 17.995 142.949 18.6998 142.949 20.2661V20.4796H145.433V22.7008H142.949V31.1584H140.675V22.7008H139.075V20.4796H140.675V20.2661C140.675 18.7995 141.075 17.6889 141.875 16.9343C142.689 16.1654 143.875 15.8308 145.433 15.9305V18.1517Z" fill="#054A91"/>
<path d="M153.85 22.7008H151.239V27.8266C151.239 28.268 151.338 28.5884 151.534 28.7877C151.731 28.9728 152.018 29.0796 152.397 29.1081C152.79 29.1223 153.275 29.1152 153.85 29.0867V31.1584C152.11 31.372 150.86 31.2225 150.102 30.7099C149.345 30.1831 148.966 29.222 148.966 27.8266V22.7008H147.029V20.4796H148.966V18.173L151.239 17.4896V20.4796H153.85V22.7008Z" fill="#054A91"/>
<path fill-rule="evenodd" clip-rule="evenodd" d="M157.714 18.8849C159.359 18.8849 160.693 17.5544 160.693 15.9132C160.693 14.2721 159.359 12.9416 157.714 12.9416C156.069 12.9416 154.736 14.2721 154.736 15.9132C154.736 17.5544 156.069 18.8849 157.714 18.8849ZM157.714 19.3834C159.635 19.3834 161.192 17.8297 161.192 15.9132C161.192 13.9967 159.635 12.4431 157.714 12.4431C155.793 12.4431 154.236 13.9967 154.236 15.9132C154.236 17.8297 155.793 19.3834 157.714 19.3834Z" fill="#054A91"/>
<path d="M158.404 17.3486L157.713 16.1695H156.987V17.3486H156.578V14.2689H157.81C158.074 14.2689 158.3 14.3627 158.487 14.5505C158.675 14.7352 158.769 14.9596 158.769 15.2236C158.769 15.4231 158.709 15.6049 158.589 15.7692C158.471 15.9334 158.319 16.0493 158.131 16.1167L158.857 17.3486H158.404ZM156.987 14.6516V15.8H157.81C157.962 15.8 158.092 15.7442 158.197 15.6328C158.306 15.5184 158.36 15.382 158.36 15.2236C158.36 15.0652 158.306 14.9303 158.197 14.8188C158.092 14.7074 157.962 14.6516 157.81 14.6516H156.987Z" fill="#054A91"/>
</svg>
